<svg xmlns="http://www.w3.org/2000/svg" xmlns:xlink="http://www.w3.org/1999/xlink" width="59.619" height="42.93" viewBox="0 0 59.619 42.93">
  <defs>
    <clipPath id="clip-path">
      <rect id="Rectangle_774" data-name="Rectangle 774" width="59.619" height="42.93" fill="none"/>
    </clipPath>
  </defs>
  <g id="Groupe_802" data-name="Groupe 802" clip-path="url(#clip-path)">
    <path id="Tracé_895" data-name="Tracé 895" d="M0,16c.307-.1.627-.327.916-.294.863.1,1.251-.2,1.354-1.086a1.567,1.567,0,0,1,1.454-1.431c.684-.11,1.34-.394,2.024-.5a2.526,2.526,0,0,0,2.475-2.331c.173-1.279,1.021-1.88,2.319-2.146,3.046-.623,6.073-1.352,9.08-2.146a7.919,7.919,0,0,0,2.609-.646c2.883-1.943,4.366-1.943,7.2.1a1.806,1.806,0,0,0,1.354.376c2.729-.29,5.474-.477,8.2-.83.822-.108,1.781.187,2.473-.41,2.193-1.9,5.048-1.18,7.06.514a17.356,17.356,0,0,1,5.5,9.511c.863,3.476,1.086,6.956-.343,10.366-.071-.083-.144-.167-.217-.25a18.769,18.769,0,0,0,.225-9.827c-.15-.713-.378-1.048-1.261-1.034A57.993,57.993,0,0,0,40.283,15.7c-1.3.3-.453,1.111-.6,1.685-.081.095-.162.191-.244.286C38.514,14.2,38.108,9.6,40.628,5.464c-.721-.26-1.034.181-1.32.735a19.649,19.649,0,0,0-1.913,6.049c-.071-.256-.144-.514-.217-.772a18.075,18.075,0,0,1,1.931-5.935l-8.548.837c4.047,4.934,5.838,10.428,4.881,16.711-.081-.175-.16-.349-.24-.522a26.7,26.7,0,0,0-.177-5.622c-.1-.532-.179-.749-.814-.7a68.691,68.691,0,0,0-12.2,1.844c-.989.254-1.076.542-.751,1.332.185.449.309.922.459,1.385l-.248.313c-1.925-4.926-2.5-9.85-.053-14.778-.853.026-.857.022-1.3.78a12.543,12.543,0,0,0-1.444,5.137c-.3-.3-.122-.7-.229-1.042A10.638,10.638,0,0,1,19.929,6.5c-1.815.4-3.462.759-5.105,1.133a16.655,16.655,0,0,1-2.855.66C9.343,8.4,8.445,10.073,8.092,12.3c-.14.885-.183,1.783-.272,2.676-.433.3.108,1.168-.719,1.243.1.053.2.106.307.158-.043.022-.063.055-.114.073a4.242,4.242,0,0,0-3.738,1.886,1.017,1.017,0,0,1-.591.406c-.039,0-.059-.02-.093-.026l.032-.057-.219-.262c-.03.033-.049.075-.079.11-.01-.024-.028-.033-.037-.059C2.8,16.735,2.7,16.605.975,16.507A2.311,2.311,0,0,1,.27,16.4a.488.488,0,0,1-.051-.037c.022-.045.055-.085.077-.132L0,16m51.612-4.55c-1.186-.459-6.8.6-8.449,1.606,2.733-.575,5.48-1.1,8.449-1.606M43.2,9.358l4.363-1.129L47.5,7.91a12.406,12.406,0,0,0-4.378,1.153c.026.1.049.2.075.3m-17.564,3.32a45.094,45.094,0,0,1,4.9-.751,5.84,5.84,0,0,0-4.9.751m7.387,2.6c-1.592-1.253-8.678-.254-10.571,1.433a22.663,22.663,0,0,1,10.571-1.433M3.672,16.457q.369-1.23.741-2.459a1.944,1.944,0,0,0-.741,2.459" transform="translate(4.919 3.435)"/>
    <path id="Tracé_896" data-name="Tracé 896" d="M2.43,20.833c.5.018.556-.162.225-.51.079-.071.158-.142.236-.215a8.494,8.494,0,0,0,2.865,1.566,7.826,7.826,0,0,1-2.4-7.389c.288-1.415.855-2.721,2.455-3.046,1.655-.335,2.729.66,3.525,1.923a7.727,7.727,0,0,1,.729,7.06c.26.16.323-.114.443-.211a2.167,2.167,0,0,0,.311-.378c.071.085.144.169.215.252-.075.443.217.432.518.432,2.439,0,4.879,0,7.348,0-.03-.29-.591-.477-.751-.912l.215-.268A3.268,3.268,0,0,0,22.11,20.6a.122.122,0,0,0,.073-.091,1.015,1.015,0,0,0-.061-.2l.236-.2a7.046,7.046,0,0,0,2.631,1.155,7.526,7.526,0,0,1-2.644-7.367c.264-1.679,1.281-2.981,2.489-3.166,1.653-.252,2.715.678,3.533,1.939a8.626,8.626,0,0,1,.883,6.95c-.288.359-.916.583-.487,1.228a4.094,4.094,0,0,1-4.483.7,9.729,9.729,0,0,0-3.689-.441c-.871-.028-1.659-.112-2.761-.138-1.639-.037-3.281-.061-4.916-.175-1.358-.095-2.615-.181-3.732.912a3.226,3.226,0,0,1-2.447.617,9.021,9.021,0,0,1-2.94-.962l-2.707-.219c.026-.024.059-.032.081-.061.361-.392.849-.118,1.261-.248" transform="translate(27.889 10.37)"/>
    <path id="Tracé_897" data-name="Tracé 897" d="M27.829,11.369a3.272,3.272,0,0,1,1.708-1.5.34.34,0,0,0,.219.361c-.489,1.017-1.436,1.691-1.947,2.733a23.62,23.62,0,0,0-2.341,11.419c.181,5.208,3.572,8.313,8.25,8.02.508-.032,1.08-.116,1.48.374.175.075.353.148.53.223a8.351,8.351,0,0,1-10.585-5.823,21.3,21.3,0,0,1,2.686-15.8" transform="translate(-24.621 9.573)" fill="#111"/>
    <path id="Tracé_898" data-name="Tracé 898" d="M27.615,9.865l.3.229c-.022.047-.055.087-.077.132a.334.334,0,0,1-.219-.361" transform="translate(-22.697 9.572)" fill="#111"/>
    <path id="Tracé_899" data-name="Tracé 899" d="M12.836,1.642C8.49.91,4.527,1.618,1.292,4.629c.033-.861.27-1.267,1.358-1.811A20,20,0,0,1,7.613,1.09a12.082,12.082,0,0,1,5.358.122A1.758,1.758,0,0,1,14.49,3.45c-.656-1.4-.841-1.673-1.653-1.809" transform="translate(42.552 0.821)" fill="#171717"/>
    <path id="Tracé_900" data-name="Tracé 900" d="M12.244,4.471c.262-1.752,1.442-2.227,2.625-2.6,2.644-.849,6.619-.506,7.57.688-.6-.15-1.1-.319-1.612-.39-3.088-.428-6.177-.83-8.583,2.307" transform="translate(13.054 1.353)" fill="#181818"/>
    <path id="Tracé_901" data-name="Tracé 901" d="M7.983,4.158a4.534,4.534,0,0,1,4.28-3.84,7.239,7.239,0,0,0-4.28,3.84" transform="translate(31.627 0.302)" fill="#1a1a1a"/>
    <path id="Tracé_902" data-name="Tracé 902" d="M10.887,0A3.258,3.258,0,0,1,12.57,3.578,9.8,9.8,0,0,0,10.887,0" transform="translate(25.51 -0.001)" fill="#242424"/>
    <path id="Tracé_903" data-name="Tracé 903" d="M1.3,15.766A15.356,15.356,0,0,0,2.16,14.4a.3.3,0,0,0,.3.134A5,5,0,0,1,.523,17.246c.13-.52.573-.867.747-1.364.014-.039.02-.077.033-.116" transform="translate(56.129 13.968)" fill="#222"/>
    <path id="Tracé_904" data-name="Tracé 904" d="M.6,14.335l.219.252a.3.3,0,0,1-.3-.134c.03-.037.047-.083.081-.118" transform="translate(57.766 13.91)" fill="#222"/>
    <path id="Tracé_905" data-name="Tracé 905" d="M1.743,15.343a1.263,1.263,0,0,0,.294-.252c-.014.039-.02.077-.033.116-.173.5-.619.843-.747,1.364-.43-.644.2-.869.487-1.228" transform="translate(55.396 14.644)" fill="#222"/>
    <path id="Tracé_906" data-name="Tracé 906" d="M18.7,11.709c.112.861.64.936,1.886.433a2.01,2.01,0,0,1,2.845.971c.363.564.64.534,1.009.063s.753-.964,1.141-1.436c.812-.989,1.691-1.766,3.107-1.505.688.126.64-.437.733-.865a3.745,3.745,0,0,0-.148-1.45.642.642,0,0,0,.26.144l.02-.026c.071,1.188-.225,2.432.6,3.505a1.079,1.079,0,0,1,.126.826c-.678,2.447.566,4.445,1.505,6.5A15.646,15.646,0,0,0,34.218,22.4a3.093,3.093,0,0,0,1.228.889.617.617,0,0,0-.546.536l.041,0a.588.588,0,0,1-.573.179c-1.121-.343-1.714.25-2.286,1.109a6.283,6.283,0,0,1-1.988,2.11l-.506-.248Q30.7,25.6,31.81,24.221c.469-.585.276-.828-.424-.9-1.342-.136-2.684-.284-4.018-.485a2.436,2.436,0,0,0-1.911.518,15.327,15.327,0,0,1-4.983,2.552c-.24.061-.508.227-.8-.136.956-.378,1.86-.705,2.733-1.1.359-.162.832-.27.983-.678.784-2.093,2.315-3.732,3.375-5.655a47.23,47.23,0,0,0,2.873-5.119,1.99,1.99,0,0,0-.378-2.38,1.834,1.834,0,0,0-2.374-.118,2.463,2.463,0,0,0-1.2,1.241c-1.149,1.3-1.959,2.849-3.139,4.156a10.581,10.581,0,0,0-2.792,6.116c-1.036-.384-1.184-.778-.853-.778.707,0,.546-.5.65-.816a15.779,15.779,0,0,1,3.287-5.685,1.613,1.613,0,0,0-.134-2.516,1.961,1.961,0,0,0-2.719.432,9.639,9.639,0,0,1-1.955,2.3,9.306,9.306,0,0,0-2.524,4.4c-.264-.2-.144-.5-.215-.753a10.224,10.224,0,0,1,3.519-5.034c.8-.719.552-1.086-.189-1.5-.11-.061-.223-.116-.335-.173a.843.843,0,0,0,.414-.414m5.058,12.169a4.343,4.343,0,0,0,1.762-1.188c-1.08-.432-1.257.357-1.762,1.188m5.913-9.448-4.743,7.7,9.391,1.1a19.287,19.287,0,0,1-4.648-8.8" transform="translate(-5.962 7.685)" fill="#0e0e0e"/>
    <path id="Tracé_907" data-name="Tracé 907" d="M24.51,9.342a4.643,4.643,0,0,0,0,.987.843.843,0,0,1-.414.414c-.1-.051-.2-.1-.307-.158.828-.075.286-.94.719-1.243" transform="translate(-11.771 9.065)" fill="#0e0e0e"/>
    <path id="Tracé_908" data-name="Tracé 908" d="M18.59,8.534a.618.618,0,0,1-.26-.142,1.638,1.638,0,0,1,.049-.956c.106.341-.075.745.229,1.042l0,.03c-.01.008-.012.018-.02.026" transform="translate(4.984 7.215)" fill="#0e0e0e"/>
    <path id="Tracé_909" data-name="Tracé 909" d="M15.416,15.718a3.46,3.46,0,0,0,.835.231c-.41.13-.9-.144-1.259.248-.024.03-.057.037-.081.061l-.041,0a.617.617,0,0,1,.546-.536" transform="translate(14.068 15.252)" fill="#0e0e0e"/>
    <path id="Tracé_910" data-name="Tracé 910" d="M19.6,12.294c2.037-1,2.763-.784,3.994,1.237,1.436-1.535,2.122-4.2,5.086-3.35.1-.818-.008-1.6.089-2.361a.53.53,0,0,0,.136.2,3.7,3.7,0,0,1,.148,1.45c-.093.428-.045.991-.733.865-1.417-.26-2.3.514-3.107,1.505-.388.473-.763.956-1.139,1.436s-.648.5-1.011-.065a2.01,2.01,0,0,0-2.845-.969c-1.245.5-1.773.426-1.886-.433a1.494,1.494,0,0,0,.1-.24c.175.757.571,1.025,1.172.729" transform="translate(-5.592 7.589)" fill="#0e0e0e"/>
    <path id="Tracé_911" data-name="Tracé 911" d="M18.535,8.391a.53.53,0,0,1-.136-.2,3.18,3.18,0,0,1,.187-.761,1.623,1.623,0,0,0-.051.956" transform="translate(4.779 7.214)" fill="#0e0e0e"/>
    <path id="Tracé_912" data-name="Tracé 912" d="M23.768,10.329a4.8,4.8,0,0,1,0-.987,3.989,3.989,0,0,0,.1.747,1.333,1.333,0,0,1-.1.24" transform="translate(-11.029 9.065)" fill="#0e0e0e"/>
    <path id="Tracé_913" data-name="Tracé 913" d="M7.288,15.191a.4.4,0,0,0-.2.169,2.178,2.178,0,0,0-.278-.68c.16.169.3.351.475.51" transform="translate(38.907 14.246)" fill="#171717"/>
    <path id="Tracé_914" data-name="Tracé 914" d="M8.831,7.939a.593.593,0,0,0,.233.108A9.281,9.281,0,0,0,8.79,9.419c.016-.493.02-.983.041-1.48" transform="translate(33.235 7.703)" fill="#171717"/>
    <path id="Tracé_915" data-name="Tracé 915" d="M8.783,8.3c.01-.242.028-.487.03-.729.071.256.144.514.217.772-.006.022-.008.043-.014.065A.593.593,0,0,1,8.783,8.3" transform="translate(33.284 7.344)" fill="#171717"/>
    <path id="Tracé_916" data-name="Tracé 916" d="M6.978,14.94c.024.02.039.045.063.065-.075.089-.144.177-.217.268a1.108,1.108,0,0,0-.043-.164.4.4,0,0,1,.2-.169" transform="translate(39.217 14.497)" fill="#171717"/>
    <path id="Tracé_917" data-name="Tracé 917" d="M8.222,16.454a12.93,12.93,0,0,0,2.652,4.814,2.235,2.235,0,0,1,.278.678.434.434,0,0,0-.024.087A9.266,9.266,0,0,1,9.6,19.955,17.584,17.584,0,0,1,7.148,7.9a.489.489,0,0,0,.073.085c-.022.495-.028.987-.043,1.48a15.592,15.592,0,0,0,1.044,6.993" transform="translate(34.846 7.662)" fill="#171717"/>
    <path id="Tracé_918" data-name="Tracé 918" d="M8.894,8.213c.035-.215.055-.428.1-.644,0,.242-.018.487-.03.729a.49.49,0,0,1-.071-.085" transform="translate(33.1 7.344)" fill="#171717"/>
    <path id="Tracé_919" data-name="Tracé 919" d="M6.914,15.026c.012.055.037.1.045.164-.026-.024-.043-.053-.069-.079a.532.532,0,0,1,.024-.085" transform="translate(39.084 14.581)" fill="#171717"/>
    <path id="Tracé_920" data-name="Tracé 920" d="M11.007,21.679l-.01.008c-.175-.16-.317-.341-.475-.51-.2-.333-.457-.638-.67-.962a19.47,19.47,0,0,1-3.034-9.693c-.024-.378,0-.766.008-1.151A9.305,9.305,0,0,1,7.1,8h0l.01-.008a18.776,18.776,0,0,0,3.9,13.689" transform="translate(35.199 7.753)" fill="#171717"/>
    <path id="Tracé_921" data-name="Tracé 921" d="M8.785,8.027l0,0c.006-.022.008-.043.014-.065l0,.059-.01.008" transform="translate(33.516 7.724)" fill="#171717"/>
    <path id="Tracé_922" data-name="Tracé 922" d="M6.791,14.937c.018.024.032.049.051.073-.024-.02-.039-.045-.061-.065l.01-.008" transform="translate(39.416 14.494)" fill="#171717"/>
    <path id="Tracé_923" data-name="Tracé 923" d="M7.139,8.69c-.012.386-.032.772-.008,1.151a19.471,19.471,0,0,0,3.034,9.695c.213.323.467.627.67.96a12.922,12.922,0,0,1-2.652-4.812A15.541,15.541,0,0,1,7.139,8.69" transform="translate(34.887 8.432)" fill="#171717"/>
    <path id="Tracé_924" data-name="Tracé 924" d="M5.4,15.56a.418.418,0,0,0-.148.13l-.067.008c-.124-.124-.236-.256-.359-.384a2.706,2.706,0,0,0,.573.246" transform="translate(44.717 14.86)" fill="#191919"/>
    <path id="Tracé_925" data-name="Tracé 925" d="M7.565,10.783a.4.4,0,0,0,.248-.095,6.225,6.225,0,0,0,.085.8,6.332,6.332,0,0,0-.333-.7" transform="translate(36.815 10.371)" fill="#191919"/>
    <path id="Tracé_926" data-name="Tracé 926" d="M7.63,10.9a.444.444,0,0,0-.022-.043c.085-.1.166-.193.244-.288,0,.081.024.156.026.236a.4.4,0,0,1-.248.095" transform="translate(36.75 10.255)" fill="#191919"/>
    <path id="Tracé_927" data-name="Tracé 927" d="M4.824,15.568a.4.4,0,0,1,.146-.13c.049.014.087.045.136.057l-.24.2c-.037-.039-.071-.083-.11-.12.028-.006.041-.006.069-.01" transform="translate(45.144 14.981)" fill="#191919"/>
    <path id="Tracé_928" data-name="Tracé 928" d="M10.328,20.04c-.014.008-.024.026-.037.034a2.706,2.706,0,0,1-.573-.246,19.859,19.859,0,0,1-3.838-5.533c-.406-.9-.619-1.876-.991-2.786a6.194,6.194,0,0,1-.083-.794c.014-.014.022-.035.035-.051,1.092,3.559,2.609,6.865,5.488,9.377" transform="translate(39.823 10.347)" fill="#191919"/>
    <path id="Tracé_929" data-name="Tracé 929" d="M7.616,10.806c0-.081-.026-.156-.026-.238.02.063.041.126.061.187-.014.016-.022.037-.035.051" transform="translate(37.013 10.255)" fill="#191919"/>
    <path id="Tracé_930" data-name="Tracé 930" d="M4.793,15.422c.035.03.063.061.1.091-.047-.012-.085-.043-.134-.057.014-.008.024-.026.037-.033" transform="translate(45.358 14.965)" fill="#191919"/>
    <path id="Tracé_931" data-name="Tracé 931" d="M6.857,15.56a19.882,19.882,0,0,0,2.43,3.525,2.894,2.894,0,0,0,.816.672c.12.126.234.258.357.384l-.024,0c-3.054-2.414-4.621-5.706-5.5-9.4l.008,0a6.854,6.854,0,0,1,.331.7A14.057,14.057,0,0,0,6.857,15.56" transform="translate(39.438 10.418)" fill="#191919"/>
    <path id="Tracé_932" data-name="Tracé 932" d="M7.746,10.761l-.012-.047c.008.014.012.03.02.045l-.008,0" transform="translate(36.626 10.396)" fill="#191919"/>
    <path id="Tracé_933" data-name="Tracé 933" d="M4.9,15.509c.039.039.073.081.112.12-.049-.037-.089-.079-.138-.116l.026,0" transform="translate(44.998 15.049)" fill="#191919"/>
    <path id="Tracé_934" data-name="Tracé 934" d="M6.7,15.215a14.057,14.057,0,0,1-1.584-4.124c.372.912.585,1.884.991,2.786a19.828,19.828,0,0,0,3.838,5.535,2.894,2.894,0,0,1-.816-.672A19.882,19.882,0,0,1,6.7,15.215" transform="translate(39.596 10.762)" fill="#191919"/>
    <path id="Tracé_935" data-name="Tracé 935" d="M27.506,16.226c-.148.743-.317,1.429.475,2.039a1.737,1.737,0,0,1-1.387-.435c-.154-.11-.42-.372-.219-.465,1.08-.493.6-1.578.928-2.349a14.924,14.924,0,0,1,1.931-3.882.364.364,0,0,0,.266.209,17,17,0,0,0-1.994,4.883" transform="translate(-21.709 10.804)" fill="#19191a"/>
    <path id="Tracé_936" data-name="Tracé 936" d="M26.584,11.34l-.03.055a.355.355,0,0,1-.266-.209c.03-.033.047-.075.079-.108.071.087.144.175.217.262" transform="translate(-18.763 10.749)" fill="#19191a"/>
    <path id="Tracé_937" data-name="Tracé 937" d="M15.961,15.945a.415.415,0,0,0-.187.152.572.572,0,0,1,.008.095c-.388-.42-.751-.855-1.094-1.3a8.723,8.723,0,0,0,1.273,1.058" transform="translate(14.717 14.446)" fill="#232323"/>
    <path id="Tracé_938" data-name="Tracé 938" d="M16.427,12.574a.409.409,0,0,0,.282-.181,14.97,14.97,0,0,0,.554,1.632c-.282-.481-.56-.966-.835-1.45" transform="translate(9.989 12.026)" fill="#232323"/>
    <path id="Tracé_939" data-name="Tracé 939" d="M16.736,12.663l-.028-.047.248-.313c.016.063.043.118.061.179a.409.409,0,0,1-.282.181" transform="translate(9.68 11.937)" fill="#232323"/>
    <path id="Tracé_940" data-name="Tracé 940" d="M14.635,15.576a.425.425,0,0,1,.187-.152c.039.026.065.061.1.087-.079.071-.158.142-.236.215-.018-.018-.032-.037-.049-.055a.552.552,0,0,0-.006-.095" transform="translate(15.855 14.967)" fill="#232323"/>
    <path id="Tracé_941" data-name="Tracé 941" d="M18.658,18.377a8.723,8.723,0,0,1-1.273-1.058,31.27,31.27,0,0,1-2.154-3.283,14.828,14.828,0,0,1-.554-1.632l.016-.024a20.451,20.451,0,0,0,3.984,5.988l-.02.008" transform="translate(12.019 12.014)" fill="#232323"/>
    <path id="Tracé_942" data-name="Tracé 942" d="M16.761,12.481c-.018-.061-.043-.116-.061-.179.026.053.053.1.077.156l-.016.024" transform="translate(9.936 11.937)" fill="#232323"/>
    <path id="Tracé_943" data-name="Tracé 943" d="M14.655,15.42c.03.03.055.065.085.095-.039-.028-.065-.061-.1-.087l.02-.008" transform="translate(16.043 14.963)" fill="#232323"/>
    <path id="Tracé_944" data-name="Tracé 944" d="M17.773,17.218c.343.449.705.885,1.094,1.3v.012a13.772,13.772,0,0,1-4.087-6.045l.006,0c.276.485.554.969.835,1.45a9.938,9.938,0,0,0,2.152,3.283" transform="translate(11.63 12.115)" fill="#232323"/>
    <path id="Tracé_945" data-name="Tracé 945" d="M16.873,12.51c-.006-.018-.016-.033-.022-.049l.028.047-.006,0" transform="translate(9.537 12.092)" fill="#232323"/>
    <path id="Tracé_946" data-name="Tracé 946" d="M14.756,15.549c.016.018.03.037.047.055-.018-.014-.03-.03-.047-.043v-.012" transform="translate(15.74 15.088)" fill="#232323"/>
    <path id="Tracé_947" data-name="Tracé 947" d="M17.487,16.5a9.938,9.938,0,0,1-2.152-3.283A31.46,31.46,0,0,0,17.487,16.5" transform="translate(11.916 12.829)" fill="#232323"/>
    <path id="Tracé_948" data-name="Tracé 948" d="M10.565,15.6a.89.89,0,0,0-.221-.11,4.79,4.79,0,0,0,.455-.638c-.079.25-.166.5-.234.749" transform="translate(28.438 14.413)" fill="#313131"/>
    <path id="Tracé_949" data-name="Tracé 949" d="M9.945,13.417a.428.428,0,0,0,.258.142c-.162.3-.28.607-.416.91a8.73,8.73,0,0,0,.158-1.052" transform="translate(30.132 13.019)" fill="#313131"/>
    <path id="Tracé_950" data-name="Tracé 950" d="M9.774,13.63c.012-.144.035-.286.043-.432.081.173.16.347.24.52-.01.018-.016.037-.026.053a.428.428,0,0,1-.258-.142" transform="translate(30.303 12.807)" fill="#313131"/>
    <path id="Tracé_951" data-name="Tracé 951" d="M10.755,15.287c-.022.081-.053.16-.075.24l-.217-.252c.028-.032.043-.067.071-.1a.89.89,0,0,1,.221.11" transform="translate(28.248 14.727)" fill="#313131"/>
    <path id="Tracé_952" data-name="Tracé 952" d="M9.779,16.925c.069-.252.156-.5.234-.749A5.6,5.6,0,0,0,10.7,14.4c.136-.3.254-.615.416-.91l.016.008a7.053,7.053,0,0,1-1.283,3.46c-.02-.012-.043-.02-.065-.032" transform="translate(29.224 13.089)" fill="#313131"/>
    <path id="Tracé_953" data-name="Tracé 953" d="M9.775,13.515c.01-.018.016-.035.024-.053a.565.565,0,0,1-.01.061l-.014-.008" transform="translate(30.56 13.063)" fill="#313131"/>
    <path id="Tracé_954" data-name="Tracé 954" d="M10.57,15.265c-.051.067-.087.142-.14.209.022-.083.053-.16.075-.24a.662.662,0,0,1,.065.032" transform="translate(28.498 14.782)" fill="#313131"/>
    <path id="Tracé_955" data-name="Tracé 955" d="M10.391,16.265a4.921,4.921,0,0,1-.455.638l-.018-.01a15.534,15.534,0,0,0,1.247-3.5c.014.02.047.02.065.035a8.822,8.822,0,0,1-.158,1.054,15.885,15.885,0,0,0-.682,1.777" transform="translate(28.846 13.001)" fill="#313131"/>
    <path id="Tracé_956" data-name="Tracé 956" d="M9.9,13.594c.035-.132.071-.264.108-.4-.008.146-.032.288-.043.432-.018-.016-.051-.016-.065-.035" transform="translate(30.116 12.807)" fill="#313131"/>
    <path id="Tracé_957" data-name="Tracé 957" d="M10.646,15.182c-.028.032-.041.067-.071.1.02-.035.033-.073.053-.108l.018.01" transform="translate(28.136 14.722)" fill="#313131"/>
    <path id="Tracé_958" data-name="Tracé 958" d="M10,15.728a15.885,15.885,0,0,1,.682-1.777A5.614,5.614,0,0,1,10,15.728" transform="translate(29.239 13.538)" fill="#313131"/>
    <path id="Tracé_959" data-name="Tracé 959" d="M20.834,9.905c.41.3,1.094.538.826,1.184a2.1,2.1,0,0,1-1.978,1.578c-1.013-.049-1.163-.865-1.186-1.693q.485-.751.971-1.5a1.822,1.822,0,0,1,1.367.432m-1.05,2.288A1.372,1.372,0,0,0,21.142,11c.081-.65-.688-.922-1.188-.987-.743-.1-.751.678-.979,1.1.051.585.16,1.094.81,1.078" transform="translate(1.455 9.177)" fill="#1b1b1b"/>
    <path id="Tracé_960" data-name="Tracé 960" d="M25.558,14.208c-.024.879-.341,1.85.81,2.4-.729.118-1.373-.026-1.36-.759a4.481,4.481,0,0,1,.335-2.39c-.075.294-.335.638.215.753" transform="translate(-16.011 13.056)" fill="#282828"/>
    <path id="Tracé_961" data-name="Tracé 961" d="M25.54,13.456c.069.25-.049.556.213.753-.548-.114-.288-.459-.213-.753" transform="translate(-16.208 13.057)" fill="#282828"/>
    <path id="Tracé_962" data-name="Tracé 962" d="M17.673,25.464c1.389.02,11.43-4.987,13.953-7.285,2.79-2.546,1.235-.225,1.235-.225.4.5-11.019,7.574-13.754,8.13-2.575.522-1.434-.621-1.434-.621" transform="translate(-8 16.483)" fill="#111"/>
  </g>
</svg>
