<svg xmlns="http://www.w3.org/2000/svg" width="16.971" height="16.971" viewBox="0 0 16.971 16.971">
  <path id="_6f09a949a6b4bdfa9a6c15bfda1dc3a2" data-name="6f09a949a6b4bdfa9a6c15bfda1dc3a2" d="M11.8,10.806,2.46,1.47l6.347.251a.7.7,0,0,0,.026-1.4L.7,0A.7.7,0,0,0,.114.317.038.038,0,0,0,.107.332.666.666,0,0,0,.051.441C.047.452.045.463.041.472a.644.644,0,0,0-.028.1A.534.534,0,0,0,.007.63.414.414,0,0,0,0,.7C0,.7,0,.709,0,.714S0,.724,0,.727L.322,8.833a.7.7,0,0,0,.7.671H1.05a.7.7,0,0,0,.671-.727L1.47,2.46,10.806,11.8a.689.689,0,0,0,.495.2.7.7,0,0,0,.5-1.194Z" transform="translate(16.971 8.485) rotate(135)" fill="#fff"/>
</svg>
